<?xml version="1.0" standalone="no"?>
<!DOCTYPE svg PUBLIC "-//W3C//DTD SVG 20010904//EN"
 "http://www.w3.org/TR/2001/REC-SVG-20010904/DTD/svg10.dtd">
<svg version="1.0" xmlns="http://www.w3.org/2000/svg"
 width="512.000000pt" height="512.000000pt" viewBox="0 0 512.000000 512.000000"
 preserveAspectRatio="xMidYMid meet">
<metadata>
<desc>Cari sensasi seru# BIBD - Badan Intelijen Bokep Dunia punya koleksi film seksi gratis dan video porno cepat (tube porn). Sekarang ada lebih dari 10 juta video seks gratis! Nikmati aksi panas, cewek-cewek seksi dalam klip porno berkualitas xxx. Gak cuma itu, ada juga yang lagi viral dan bikin kamu makin penasaran</desc>
<author>BIBD.MY.ID</author>
<data>1 Februari 2024</data>
<license>CC BY-NC-ND 4.0</license>
<title>BIBD - Badan Intelijen Bokep Dunia - Nonton Video Porno Gratis dan Film Seks Terbaru</title>
<keywords>porn, porn movies, free porn, free porn movies, sex, porno, free sex, tube porn, tube, videos, full porn, xxnx, xnxxx, xxx, pussy, bokep, indo, bokepindoh, viral, skandal, ngewe, ngentot, hentai, lesbian, milf, anal, blowjob, gangbang, threesome, orgy, amateur, celebrity sex tape, incest, taboo, erotic, adult, mature, webcam, asian, ebony, latina, big tits, big ass, petite, squirt, creampie, cum, bukkake, facials, BDSM, bondage, fetish, foot fetish, roleplay, cosplay, VR porn, live sex, cam girls, camboys, camgirls, camshow, premium porn, premium sex, celebrity porn, Indian, Arab, Japanese, Korean, Chinese, Russian, German, French, Italian, Spanish, Brazilian, African, BBW, trans, shemale, gay, lesbian, bisexual, transgender, gay porn, lesbian porn, bisexual porn, transgender porn, adult games, adult toys, sextape, homemade porn, homemade sex, real sex, real porn, hidden cam, voyeur, upskirt, public sex, beach sex, office sex, schoolgirl, teacher, nurse, police, doctor, maid, secretary, stewardess, cheerleader, college, university, dorm sex, massage, oil, anal creampie, anal sex, anal gaping, double penetration, DP, rough sex, deepthroat, interracial, cuckold, wife sharing, swinger, orgy, cuckquean, hotwife, bull, sissy, pantyhose, stockings, lingerie, swimsuit, bikini, yoga pants, leggings, high heels, boots, sneakers, cosplay porn, cosplay sex, hentai porn, hentai sex, manga, anime, furry, tentacles, tentacle porn, monster, monster sex, alien, alien sex, vampire, vampire sex, werewolf, werewolf sex, zombie, zombie sex, ghost, ghost sex, succubus, succubus sex, incubus, incubus sex, demon, demon sex, witch, witch sex, wizard, wizard sex, fairy, fairy sex, elf, elf sex, dwarf, dwarf sex, orc, orc sex, goblin, goblin sex, pixie, pixie sex, mermaid, mermaid sex, siren, siren sex, centaur, centaur sex, unicorn, unicorn sex, cyborg, cyborg sex, robot, robot sex, artificial intelligence, AI, machine, machine sex, virtual reality, VR, 3D porn, 3D sex, animated porn, animated sex, cartoon porn, cartoon sex, furry porn, furry sex, CGI porn, CGI sex, interactive porn, interactive sex, virtual sex, virtual girlfriend, virtual boyfriend, virtual reality porn, virtual reality sex, VR girlfriend, VR boyfriend, VR porn game, VR sex game, adult VR game, erotic VR game, VR sex toy, VR sex experience, VR porn experience, adult VR experience, erotic VR experience, VR headset, VR goggles, VR controller, VR platform, VR app, VR website, VR community, VR chat, VR porn chat, sex chat, sexting, cybersex, virtual girlfriend experience, virtual boyfriend experience, adult virtual reality, erotic virtual reality, VR porn studio, VR porn actress, VR porn actor, VR porn director, VR porn producer, VR porn scriptwriter, virtual sex therapist, virtual sex coach, virtual intimacy, sexual wellness, sexual health, sex education, sexual fantasy, sexual desire, sexual pleasure, sexual satisfaction, sexual technique, sexual positions, orgasm, masturbation, mutual masturbation, solo sex, solo porn, solo female, solo male, solo masturbation, solo orgasm, solo pleasure, solo satisfaction, solo technique, solo positions, solo show, dirty talk, roleplay porn, roleplay sex, BDSM porn, BDSM sex, bondage porn, bondage sex, fetish porn, fetish sex, foot fetish porn, foot fetish sex, nylon, latex, leather, rubber, PVC, domination, submission, sadomasochism, spanking, whipping, flogging, caning, corporal punishment, slave, master, mistress, submissive, dominant, switch, femdom, findom, financial domination, bondage gear, BDSM toys, sex swing, handcuffs, blindfold, gag, collar, leash, nipple clamps, anal toys, butt plug, dildo, vibrator, wand, fleshlight, male masturbator, cock ring, penis pump, kegel balls, ben wa balls, sex machine, sybian, fuck machine, erotic literature, erotic art, nude photography, nude art, sensual massage, tantric sex, tantra, kamasutra, sexual positions, sexual techniques, sexual exploration, sexual liberation, sexual empowerment, sexual confidence, sexual identity, sexual orientation, sexual fluidity, sexual diversity, sexual minority, sexual health, sexual wellness, sexual pleasure, sexual satisfaction, sexual arousal, sexual desire, sexual fantasy, sexual intimacy, sexual connection, sexual compatibility, sexual communication, sexual consent, sexual boundaries, sexual experimentation, sexual revolution, sexual revolutionaries, sexual pioneers, sexual advocates, sexual activists, sex positivity, sex education, sex therapy, sex counseling, sex coaching, sexology, sexologist, sex researcher, sex educator, sex worker, sex work, sex industry, sex toy industry, adult industry, adult entertainment, adult content, adult film, adult video, adult website, adult subscription, adult magazine, adult store, adult shop, adult product, adult service, erotic entertainment, erotic content, erotic film, erotic video, erotic website, erotic subscription, erotic magazine, erotic store, erotic shop, erotic product, erotic service, pornographic entertainment, pornographic content, pornographic film, pornographic video, pornographic website, pornographic subscription, pornographic magazine, pornographic store, pornographic shop, pornographic product, pornographic service, explicit entertainment, explicit content, explicit film, explicit video, explicit website, explicit subscription, explicit magazine, explicit store, explicit shop, explicit product, explicit service, hardcore entertainment, hardcore content, hardcore film, hardcore video, hardcore website, hardcore subscription, hardcore magazine, hardcore store, hardcore shop, hardcore product, hardcore service, uncensored entertainment, uncensored content, uncensored film, uncensored video, uncensored website, uncensored subscription, uncensored magazine, uncensored store, uncensored shop, uncensored product, uncensored service, X-rated entertainment, X-rated content, X-rated film, X-rated video, X-rated website, X-rated subscription, X-rated magazine, X-rated store, X-rated shop, X-rated product, X-rated service, adult film industry, adult video industry, adult website industry, adult subscription industry, adult magazine industry, adult store industry, adult shop industry, adult product industry, adult service industry, erotic film industry, erotic video industry, erotic website industry, erotic subscription industry, erotic magazine industry, erotic store industry, erotic shop industry, erotic product industry, erotic service industry, pornographic film industry, pornographic video industry</keywords>

</metadata>
<g transform="translate(0.000000,512.000000) scale(0.100000,-0.100000)"
fill="#000000" stroke="none">
<path d="M0 2560 l0 -2560 498 1 c300 0 488 4 475 9 -27 11 -28 16 -7 24 8 3
12 2 9 -4 -3 -6 -1 -10 4 -10 6 0 11 4 11 9 0 15 -32 36 -52 33 -10 -2 -18 2
-18 7 0 6 7 11 15 11 20 0 19 12 -6 44 l-20 26 26 10 c26 10 26 30 -1 30 -8 0
-14 7 -14 15 0 9 6 12 15 9 8 -4 15 -10 15 -15 0 -5 7 -9 16 -9 10 0 13 6 10
18 -4 12 3 23 24 35 17 10 30 22 30 28 0 5 5 9 11 9 5 0 7 -4 4 -10 -3 -6 1
-7 9 -4 9 3 16 10 16 14 0 4 11 11 25 14 29 8 31 18 8 42 -17 17 -17 17 5 12
12 -4 28 -1 35 5 7 7 41 11 82 10 39 0 75 3 81 8 6 5 52 6 105 1 52 -4 129 -7
171 -6 53 0 75 -3 71 -10 -3 -6 0 -5 8 2 7 6 29 12 48 12 27 0 32 -3 21 -10
-9 -6 -10 -10 -3 -10 6 0 15 5 18 10 3 6 11 10 16 10 6 0 7 -5 4 -10 -4 -6 51
-11 157 -12 224 -3 233 -3 403 6 213 12 634 10 666 -2 28 -11 142 -6 146 6 2
4 132 5 290 4 159 -2 319 0 356 5 37 6 70 6 73 2 2 -4 14 -8 27 -8 51 -1 62
-3 111 -15 37 -10 51 -18 49 -31 0 -10 4 -14 13 -11 7 3 27 0 44 -7 24 -11 28
-16 17 -27 -9 -10 -9 -12 1 -6 6 4 12 2 12 -3 0 -6 9 -11 20 -11 11 0 20 -5
20 -12 0 -17 40 -57 54 -54 6 2 8 1 4 -1 -4 -2 -4 -11 -1 -19 3 -8 -1 -14 -11
-14 -9 0 -16 -4 -16 -10 0 -5 7 -7 15 -4 10 4 18 -3 25 -21 12 -33 13 -48 1
-41 -5 3 -12 -1 -15 -10 -4 -11 1 -18 14 -21 20 -5 25 -15 13 -26 -3 -4 -12
-2 -20 5 -11 8 -12 7 -7 -5 5 -15 52 -16 450 -17 l444 0 0 2560 0 2560 -2560
0 -2560 0 0 -2560z m2135 1640 c-3 -5 -13 -10 -21 -10 -8 0 -22 -4 -32 -9 -9
-6 -60 -30 -112 -55 -52 -25 -133 -70 -180 -101 -95 -64 -130 -82 -85 -43 86
73 235 160 350 204 66 25 90 29 80 14z m109 -275 c39 -13 89 -38 112 -55 23
-16 46 -30 51 -30 19 -2 112 -131 168 -235 15 -28 20 -30 73 -30 55 0 58 2
101 48 24 26 50 47 58 47 8 0 38 21 67 47 106 96 281 149 413 124 199 -36 354
-151 487 -359 25 -40 46 -80 46 -90 0 -9 7 -26 15 -36 8 -11 15 -28 15 -38 0
-10 4 -26 9 -36 16 -32 30 -85 25 -93 -3 -5 0 -28 7 -51 17 -64 22 -190 7
-200 -10 -6 -10 -10 0 -20 16 -16 15 -28 -3 -28 -8 0 -15 -9 -15 -20 0 -11 -5
-20 -11 -20 -7 0 -9 -10 -5 -25 4 -16 2 -25 -5 -25 -7 0 -9 -9 -6 -21 3 -12 0
-22 -9 -26 -10 -3 -12 -12 -8 -26 5 -16 3 -19 -11 -13 -14 5 -16 2 -12 -14 3
-11 1 -20 -4 -20 -5 0 -9 5 -9 11 0 5 -4 8 -10 4 -5 -3 -7 -12 -3 -20 3 -11
-2 -15 -17 -15 -23 0 -23 0 -4 -21 19 -21 19 -22 -2 -15 -13 4 -26 1 -33 -8
-7 -8 -24 -17 -39 -20 -15 -4 -40 -13 -57 -20 -16 -8 -43 -19 -60 -26 -16 -7
-38 -16 -48 -22 -10 -5 -22 -6 -28 -2 -5 3 -16 1 -24 -6 -10 -8 -19 -8 -34 2
-17 10 -25 10 -42 0 -14 -9 -25 -10 -31 -4 -6 6 -17 8 -24 5 -8 -3 -21 0 -29
7 -11 9 -18 10 -29 1 -7 -6 -21 -8 -31 -5 -10 4 -20 1 -25 -6 -6 -10 -12 -11
-22 -3 -7 6 -51 10 -103 9 -56 -1 -100 3 -116 11 -19 9 -114 13 -373 13 -341
1 -349 1 -363 -19 -8 -12 -19 -21 -25 -21 -6 0 -6 6 2 15 21 25 4 29 -47 13
-54 -17 -75 -14 -66 9 4 10 2 14 -4 10 -5 -3 -27 -7 -49 -8 -21 -1 -49 -8 -61
-16 -17 -10 -23 -10 -23 -2 0 7 -9 4 -21 -7 -16 -15 -22 -16 -29 -5 -4 8 -15
11 -24 8 -9 -4 -16 -1 -16 5 0 7 -23 9 -75 5 -54 -5 -75 -3 -75 5 0 9 -3 9
-12 0 -17 -17 -38 -15 -38 3 0 18 -5 18 -31 5 -15 -8 -19 -7 -19 5 0 8 -9 15
-19 15 -11 0 -26 7 -34 15 -11 10 -25 13 -46 9 -20 -4 -31 -2 -31 5 0 6 -7 11
-15 11 -8 0 -15 9 -15 20 0 18 -3 19 -21 10 -24 -13 -38 -5 -21 12 20 20 14
31 -13 24 -27 -7 -32 2 -12 23 10 11 6 13 -20 8 -33 -7 -46 6 -18 17 29 11 15
26 -17 19 -30 -6 -32 -5 -19 10 9 11 10 17 2 17 -6 0 -11 7 -11 15 0 8 -5 15
-11 15 -6 0 -8 9 -4 20 5 14 2 20 -10 20 -11 0 -14 6 -9 25 4 17 2 25 -7 25
-10 0 -10 3 -1 12 16 16 15 31 -1 25 -10 -4 -13 13 -12 75 1 44 -3 82 -7 84
-4 3 -3 14 2 25 6 10 12 43 14 72 3 56 31 160 50 192 7 11 16 36 20 55 10 53
119 209 199 287 116 112 244 185 395 223 97 25 199 20 296 -15z m-1208 -1361
c16 -129 -24 -286 -91 -358 -14 -15 -25 -29 -25 -31 0 -2 -16 -21 -35 -42 -19
-21 -35 -43 -35 -50 0 -21 -19 -24 -29 -5 -8 15 -3 33 22 83 67 130 80 175 91
294 2 25 76 165 87 165 4 0 11 -25 15 -56z m3147 -27 c28 -56 39 -100 38 -146
-1 -30 76 -213 141 -334 8 -16 4 -39 -5 -26 -2 2 -20 30 -42 61 -21 32 -52 66
-70 76 -20 13 -35 33 -44 60 -8 23 -17 42 -21 42 -4 0 -17 24 -30 53 -16 37
-24 80 -27 149 -8 146 10 166 60 65z m-1887 -26 c-15 -17 -15 -19 -1 -25 9 -3
28 -3 42 0 18 5 24 3 19 -5 -10 -15 7 -14 23 2 11 10 13 9 8 -5 -8 -22 36 -36
57 -19 15 13 27 5 19 -15 -3 -8 1 -14 11 -14 9 0 24 -4 34 -10 32 -18 77 -33
110 -37 36 -4 122 29 122 47 0 6 5 8 10 5 6 -4 17 -2 24 4 7 6 21 9 30 5 9 -4
16 -1 16 6 0 8 8 10 21 7 12 -3 22 0 26 9 4 10 10 11 23 4 25 -13 30 -13 30 4
0 15 84 17 108 3 6 -5 18 -5 25 0 6 4 29 8 50 8 28 0 36 -4 32 -14 -4 -10 -2
-11 7 -4 17 14 99 6 116 -11 13 -13 62 -10 62 4 0 14 -28 19 -34 7 -3 -9 -5
-9 -5 0 -1 18 18 26 33 14 8 -7 20 -10 27 -9 8 2 14 -5 14 -14 0 -10 6 -23 13
-30 9 -9 12 -9 12 1 0 9 9 11 30 6 20 -4 30 -3 30 5 0 6 12 2 26 -9 29 -23 67
-30 46 -9 -25 25 -10 27 33 4 25 -14 47 -20 51 -15 3 5 -2 9 -10 9 -9 0 -16 5
-16 10 0 13 7 13 68 -5 45 -14 54 -14 67 -2 10 11 11 17 2 26 -23 23 15 11 45
-14 16 -14 36 -25 44 -25 8 0 14 -4 14 -10 0 -5 7 -10 16 -10 11 0 14 -6 9
-21 -6 -18 -4 -20 13 -15 15 5 21 1 27 -16 6 -19 8 -20 12 -5 5 19 23 24 23 6
0 -6 9 -18 21 -27 11 -10 21 -26 23 -36 3 -21 26 -35 26 -16 0 6 5 8 10 5 6
-3 7 -17 4 -31 -6 -24 10 -35 19 -11 4 9 7 9 18 -1 12 -11 12 -14 0 -21 -18
-11 2 -23 24 -15 14 6 16 3 11 -14 -7 -21 -3 -29 35 -71 9 -10 23 -31 31 -47
8 -16 29 -55 47 -88 17 -32 31 -67 31 -77 0 -10 3 -19 8 -19 4 0 8 -10 9 -22
1 -13 11 -56 22 -97 18 -63 21 -104 21 -250 1 -267 -26 -415 -104 -578 -25
-51 -63 -117 -85 -146 -45 -62 -144 -152 -213 -196 l-47 -30 -113 21 c-134 26
-213 27 -412 5 -112 -13 -163 -23 -204 -42 -30 -14 -58 -22 -63 -19 -5 3 -25
0 -45 -6 -45 -15 -154 -21 -154 -8 0 5 -6 6 -12 1 -18 -10 -132 -11 -139 -1
-3 5 -26 9 -52 10 -26 1 -47 5 -47 9 0 4 -20 4 -45 1 -32 -3 -45 -1 -45 8 0 9
-4 9 -12 3 -7 -6 -20 -11 -28 -11 -156 -8 -248 -8 -278 0 -20 5 -46 11 -57 12
-12 2 -42 11 -69 20 -61 21 -302 55 -398 57 -40 1 -93 -3 -117 -9 -26 -6 -54
-6 -67 -2 -12 5 -43 8 -68 7 -25 -1 -46 1 -46 4 0 7 -69 24 -82 21 -5 -1 -8 3
-8 9 0 5 -4 7 -10 4 -5 -3 -10 -1 -10 4 0 6 -6 11 -14 11 -8 0 -43 31 -79 70
-87 94 -160 235 -194 375 -27 113 -37 575 -14 650 22 69 74 199 92 225 39 60
68 121 63 134 -3 9 1 13 13 13 13 -2 17 4 16 20 -2 15 2 21 11 17 8 -3 17 -1
21 5 3 6 1 11 -4 11 -6 0 -11 5 -11 11 0 6 7 8 16 5 21 -8 40 4 23 15 -11 7
-11 11 -1 21 10 10 14 10 21 -1 5 -7 14 -10 20 -7 8 5 7 12 -4 22 -24 25 -17
36 13 20 26 -14 30 -13 45 5 9 10 17 24 17 29 0 15 -17 12 -24 -5 -6 -17 -36
-21 -36 -5 0 6 7 10 16 10 11 0 14 6 9 23 -5 16 -4 18 3 8 6 -8 17 -11 26 -8
8 3 18 2 21 -3 9 -15 25 -12 25 4 0 7 10 17 23 21 19 6 19 8 5 12 -25 6 -22
22 6 33 13 5 27 14 31 19 9 16 25 13 25 -5 0 -8 4 -13 10 -9 5 3 7 12 3 20 -3
9 1 15 10 15 8 0 20 7 27 15 7 8 19 15 27 15 8 0 1 -12 -19 -30 -38 -35 -33
-38 16 -9 19 11 40 18 45 14 6 -3 24 1 42 10 32 17 57 11 26 -6 -23 -14 -22
-28 3 -22 11 3 20 8 20 12 0 4 8 8 18 8 9 1 28 4 42 5 19 2 24 -1 22 -15 -2
-14 2 -18 15 -15 12 3 17 11 15 27 -2 20 0 22 13 11 12 -10 20 -7 45 20 34 37
41 26 9 -14 -23 -29 -19 -47 6 -26 9 7 32 13 52 14 21 1 38 7 41 14 3 11 0 12
-18 2 -23 -12 -40 -6 -24 9 14 13 108 21 95 8 -15 -15 -14 -27 4 -27 8 0 15 6
15 14 0 8 7 16 14 19 10 4 13 1 9 -9 -9 -23 14 -16 31 11 9 14 21 25 27 25 8
0 7 -5 -1 -15 -15 -18 -7 -31 11 -19 7 4 24 9 37 10 13 2 35 10 49 19 24 16
25 16 18 -4 -6 -19 -3 -20 27 -15 18 4 49 16 68 29 40 26 51 24 26 -4z m754
-11 c0 -5 -2 -10 -4 -10 -3 0 -8 5 -11 10 -3 6 -1 10 4 10 6 0 11 -4 11 -10z
m-1460 -24 c0 -3 -4 -8 -10 -11 -5 -3 -10 -1 -10 4 0 6 5 11 10 11 6 0 10 -2
10 -4z m-40 -27 c0 -6 -4 -7 -10 -4 -5 3 -10 11 -10 16 0 6 5 7 10 4 6 -3 10
-11 10 -16z m2145 -9 c8 -13 -15 -13 -35 0 -12 8 -11 10 7 10 12 0 25 -4 28
-10z m-2385 -74 c0 -3 -4 -8 -10 -11 -5 -3 -10 -1 -10 4 0 6 5 11 10 11 6 0
10 -2 10 -4z m-490 -315 c0 -17 -27 -37 -37 -27 -7 7 17 46 27 46 6 0 10 -9
10 -19z m3500 -24 c0 -16 -18 3 -23 25 -6 22 -5 22 8 4 8 -11 15 -24 15 -29z
m-3290 -7 c0 -5 -5 -10 -11 -10 -5 0 -7 5 -4 10 3 6 8 10 11 10 2 0 4 -4 4
-10z m-250 -20 c0 -5 -4 -10 -10 -10 -5 0 -10 5 -10 10 0 6 5 10 10 10 6 0 10
-4 10 -10z m3605 0 c3 -5 1 -10 -4 -10 -6 0 -11 5 -11 10 0 6 2 10 4 10 3 0 8
-4 11 -10z m25 -40 c0 -5 -2 -10 -4 -10 -3 0 -8 5 -11 10 -3 6 -1 10 4 10 6 0
11 -4 11 -10z m-3655 -10 c3 -5 1 -10 -4 -10 -6 0 -11 5 -11 10 0 6 2 10 4 10
3 0 8 -4 11 -10z m1021 -1405 c34 -8 96 -18 139 -24 80 -10 95 -19 95 -59 0
-20 -2 -21 -20 -10 -11 7 -20 16 -20 20 0 7 -80 4 -242 -8 -51 -3 -78 -2 -83
6 -4 7 -11 8 -18 2 -7 -5 -78 -12 -159 -16 -144 -7 -148 -6 -148 14 0 46 43
63 205 83 73 9 195 6 251 -8z m1974 -16 c61 -13 87 -43 75 -86 -6 -21 -9 -24
-12 -10 -3 12 -11 16 -26 12 -12 -2 -77 -1 -144 3 -71 4 -123 3 -123 -2 0 -10
-121 -1 -214 15 -47 8 -61 8 -75 -4 -9 -8 -26 -18 -38 -21 -18 -6 -23 -3 -23
11 1 52 10 62 69 68 31 4 90 13 131 21 84 15 294 11 380 -7z m510 -389 c0 -5
-4 -10 -10 -10 -5 0 -10 5 -10 10 0 6 5 10 10 10 6 0 10 -4 10 -10z"/>
<path d="M1895 3575 c-103 -38 -190 -143 -221 -265 -18 -72 -15 -136 12 -217
22 -69 61 -113 132 -151 104 -55 215 -42 295 36 121 117 144 353 49 502 -53
83 -178 128 -267 95z m80 -55 c-3 -5 -12 -10 -19 -10 -20 0 -118 -88 -159
-144 -46 -60 -73 -73 -63 -29 20 78 87 148 173 179 45 16 77 18 68 4z m131
-38 c6 -4 17 -18 23 -32 11 -22 10 -22 -13 5 l-26 30 10 -28 c16 -46 12 -56
-26 -63 -39 -7 -57 4 -68 42 -4 14 -1 28 9 38 17 16 71 21 91 8z"/>
<path d="M3187 3555 c-74 -26 -115 -84 -143 -202 -20 -86 -14 -197 16 -278 55
-145 214 -217 340 -152 85 42 150 164 150 283 0 82 -46 198 -105 262 -82 90
-169 119 -258 87z m223 -123 c25 -27 54 -65 65 -85 18 -34 18 -38 3 -53 -15
-15 -17 -15 -28 7 -16 30 -94 134 -134 177 l-31 34 40 -16 c22 -9 60 -38 85
-64z m-245 27 c11 -16 -13 -62 -46 -87 l-29 -24 0 27 c0 30 16 65 39 82 20 15
28 16 36 2z m-75 -158 c0 -6 -4 -13 -10 -16 -5 -3 -10 1 -10 9 0 9 5 16 10 16
6 0 10 -4 10 -9z"/>
<path d="M2490 3051 c-19 -20 -48 -47 -65 -59 -16 -12 -23 -19 -14 -16 22 7
29 -5 18 -33 -6 -17 -14 -21 -38 -18 -17 2 -31 0 -31 -4 0 -4 -25 -16 -55 -26
-83 -29 -59 -28 46 0 101 27 149 31 180 15 32 -18 21 -30 -28 -30 -43 0 -258
-52 -294 -71 -10 -5 -21 -3 -28 4 -10 9 -12 8 -9 -8 3 -16 14 -21 58 -27 70
-8 136 -34 282 -111 l118 -62 102 52 c133 68 163 79 256 98 42 9 82 21 87 26
7 7 4 10 -10 8 -11 -1 -38 2 -60 6 -22 5 -44 8 -48 7 -5 -1 -6 2 -3 7 9 14
-75 49 -157 67 l-72 15 -35 -40 c-20 -23 -42 -41 -49 -41 -22 0 -58 55 -68
104 -2 10 -10 24 -18 30 -9 7 -15 34 -17 78 -2 38 -5 68 -8 67 -3 0 -21 -17
-40 -38z m433 -248 c-7 -2 -19 -2 -25 0 -7 3 -2 5 12 5 14 0 19 -2 13 -5z"/>
<path d="M2365 3049 c-55 -41 -67 -56 -27 -33 28 16 84 65 71 63 -2 0 -22 -14
-44 -30z"/>
<path d="M2748 3062 c-2 -4 -2 -37 0 -74 l4 -67 54 -7 c50 -6 87 2 57 13 -7 3
-13 9 -13 14 0 14 -98 130 -102 121z"/>
<path d="M2186 2885 c-9 -26 -7 -32 5 -12 6 10 9 21 6 23 -2 3 -7 -2 -11 -11z"/>
<path d="M2995 2860 c3 -5 8 -10 11 -10 2 0 4 5 4 10 0 6 -5 10 -11 10 -5 0
-7 -4 -4 -10z"/>
<path d="M1395 2380 c-3 -5 -1 -10 4 -10 6 0 11 5 11 10 0 6 -2 10 -4 10 -3 0
-8 -4 -11 -10z"/>
<path d="M3915 2280 c3 -5 8 -10 11 -10 2 0 4 5 4 10 0 6 -5 10 -11 10 -5 0
-7 -4 -4 -10z"/>
<path d="M2533 1850 c-34 -20 -66 -73 -77 -127 -5 -20 -23 -44 -50 -67 -39
-32 -116 -155 -116 -185 0 -16 52 -13 78 5 26 18 27 11 7 -46 -16 -45 -20
-108 -7 -125 15 -22 64 -46 90 -45 15 0 55 0 90 0 56 -1 81 11 50 23 -10 4
-10 6 0 6 7 1 20 -6 29 -14 10 -11 33 -15 76 -14 84 1 126 15 138 46 12 33 12
140 -1 164 -13 23 2 26 20 4 17 -21 60 -20 60 2 0 31 -42 103 -90 156 -33 36
-52 69 -63 107 -25 84 -83 130 -165 130 -20 0 -51 -9 -69 -20z m47 -97 c27
-16 31 -16 64 2 35 19 36 19 50 0 23 -30 20 -65 -4 -65 -22 0 -26 20 -8 38 16
16 1 29 -19 16 -32 -20 -38 -40 -20 -68 10 -14 26 -26 36 -26 14 0 20 -10 24
-39 3 -22 18 -56 33 -77 23 -30 29 -48 29 -87 0 -45 -4 -52 -38 -82 -46 -40
-93 -48 -164 -28 -114 31 -137 143 -53 251 20 24 20 27 5 38 -9 7 -24 10 -33
7 -12 -5 -11 -1 4 14 11 11 23 16 29 12 17 -16 54 -9 65 11 8 16 6 26 -12 50
-12 16 -28 30 -35 30 -7 0 -13 5 -13 10 0 15 29 12 60 -7z m-22 -55 c-2 -5 -7
-9 -11 -9 -4 1 -14 1 -22 1 -8 0 -15 4 -15 9 0 5 11 9 25 9 14 0 24 -5 23 -10z
m182 -42 c0 -2 -7 -7 -16 -10 -8 -3 -12 -2 -9 4 6 10 25 14 25 6z m-250 -355
c0 -13 -27 -21 -47 -14 -15 6 -15 7 3 14 27 11 44 11 44 0z m290 -1 c11 -7 7
-10 -17 -10 -18 0 -33 5 -33 10 0 13 30 13 50 0z"/>
<path d="M1787 1125 c7 -49 24 -84 55 -111 55 -51 33 -49 688 -50 338 -1 647
2 686 6 51 5 79 13 103 31 40 29 71 78 71 110 -1 21 -3 19 -16 -11 -15 -35
-54 -79 -54 -61 0 6 -13 5 -32 -2 -25 -9 -206 -12 -698 -12 -623 0 -667 2
-700 19 -19 10 -45 23 -57 29 -13 7 -30 30 -38 52 l-14 40 6 -40z"/>
</g>
</svg>
